<mxfile host="app.diagrams.net" modified="2024-01-16T22:14:38.792Z" agent="Mozilla/5.0 (Macintosh; Intel Mac OS X 10_15_7) AppleWebKit/537.36 (KHTML, like Gecko) Chrome/120.0.0.0 Safari/537.36" etag="Rdex-scQm-B1NvcxRCtR" version="22.1.18" type="github">
  <diagram name="Page-1" id="iysN_2LWHAl4f9Z4SGd8">
    <mxGraphModel dx="1382" dy="778" grid="1" gridSize="10" guides="1" tooltips="1" connect="1" arrows="1" fold="1" page="1" pageScale="1" pageWidth="1600" pageHeight="900" math="1" shadow="0">
      <root>
        <mxCell id="0" />
        <mxCell id="1" parent="0" />
        <mxCell id="shUx7FzOw33gI_u7dY2l-1" value="" style="rounded=1;whiteSpace=wrap;html=1;fontSize=16;" parent="1" vertex="1">
          <mxGeometry x="700" y="360" width="200" height="180" as="geometry" />
        </mxCell>
        <mxCell id="TJBPnK9k0TUtc4zv2ndw-11" value="Moderator" style="rounded=1;whiteSpace=wrap;html=1;fillColor=#f8cecc;strokeColor=#b85450;" parent="1" vertex="1">
          <mxGeometry x="767.5" y="497.5" width="65" height="25" as="geometry" />
        </mxCell>
        <mxCell id="TJBPnK9k0TUtc4zv2ndw-12" value="Coolant" style="rounded=1;whiteSpace=wrap;html=1;fillColor=#ffe6cc;strokeColor=#d79b00;" parent="1" vertex="1">
          <mxGeometry x="710" y="457.5" width="65" height="25" as="geometry" />
        </mxCell>
        <mxCell id="TJBPnK9k0TUtc4zv2ndw-13" value="Coolant" style="rounded=1;whiteSpace=wrap;html=1;fillColor=#ffe6cc;strokeColor=#d79b00;" parent="1" vertex="1">
          <mxGeometry x="825" y="457.5" width="65" height="25" as="geometry" />
        </mxCell>
        <mxCell id="TJBPnK9k0TUtc4zv2ndw-14" value="Tubes" style="rounded=1;whiteSpace=wrap;html=1;fillColor=#f5f5f5;strokeColor=#666666;fontColor=#333333;" parent="1" vertex="1">
          <mxGeometry x="767.5" y="417.5" width="65" height="25" as="geometry" />
        </mxCell>
        <mxCell id="TJBPnK9k0TUtc4zv2ndw-15" value="Fuel" style="rounded=1;whiteSpace=wrap;html=1;fillColor=#e1d5e7;strokeColor=#9673a6;" parent="1" vertex="1">
          <mxGeometry x="710" y="377.5" width="65" height="25" as="geometry" />
        </mxCell>
        <mxCell id="TJBPnK9k0TUtc4zv2ndw-16" value="Fuel" style="rounded=1;whiteSpace=wrap;html=1;fillColor=#e1d5e7;strokeColor=#9673a6;" parent="1" vertex="1">
          <mxGeometry x="825" y="377.5" width="65" height="25" as="geometry" />
        </mxCell>
        <mxCell id="TJBPnK9k0TUtc4zv2ndw-20" value="" style="endArrow=classicThin;startArrow=classicThin;html=1;rounded=1;exitX=0.5;exitY=0;exitDx=0;exitDy=0;entryX=0;entryY=0.75;entryDx=0;entryDy=0;startFill=1;endFill=1;curved=0;" parent="1" source="TJBPnK9k0TUtc4zv2ndw-12" target="TJBPnK9k0TUtc4zv2ndw-14" edge="1">
          <mxGeometry width="50" height="50" relative="1" as="geometry">
            <mxPoint x="820" y="547.5" as="sourcePoint" />
            <mxPoint x="870" y="497.5" as="targetPoint" />
            <Array as="points">
              <mxPoint x="743" y="437.5" />
            </Array>
          </mxGeometry>
        </mxCell>
        <mxCell id="TJBPnK9k0TUtc4zv2ndw-21" value="" style="endArrow=classicThin;startArrow=classicThin;html=1;rounded=1;entryX=0.5;entryY=0;entryDx=0;entryDy=0;exitX=1;exitY=0.75;exitDx=0;exitDy=0;startFill=1;endFill=1;curved=0;" parent="1" source="TJBPnK9k0TUtc4zv2ndw-14" target="TJBPnK9k0TUtc4zv2ndw-13" edge="1">
          <mxGeometry width="50" height="50" relative="1" as="geometry">
            <mxPoint x="820" y="547.5" as="sourcePoint" />
            <mxPoint x="870" y="497.5" as="targetPoint" />
            <Array as="points">
              <mxPoint x="858" y="437.5" />
            </Array>
          </mxGeometry>
        </mxCell>
        <mxCell id="TJBPnK9k0TUtc4zv2ndw-22" value="" style="endArrow=classicThin;startArrow=classicThin;html=1;rounded=1;exitX=0.5;exitY=1;exitDx=0;exitDy=0;entryX=0;entryY=0.25;entryDx=0;entryDy=0;curved=0;startFill=1;endFill=1;" parent="1" source="TJBPnK9k0TUtc4zv2ndw-15" target="TJBPnK9k0TUtc4zv2ndw-14" edge="1">
          <mxGeometry width="50" height="50" relative="1" as="geometry">
            <mxPoint x="820" y="547.5" as="sourcePoint" />
            <mxPoint x="870" y="497.5" as="targetPoint" />
            <Array as="points">
              <mxPoint x="743" y="423.5" />
            </Array>
          </mxGeometry>
        </mxCell>
        <mxCell id="TJBPnK9k0TUtc4zv2ndw-23" value="" style="endArrow=classicThin;startArrow=classicThin;html=1;rounded=1;entryX=0.5;entryY=1;entryDx=0;entryDy=0;exitX=1;exitY=0.25;exitDx=0;exitDy=0;curved=0;startFill=1;endFill=1;" parent="1" source="TJBPnK9k0TUtc4zv2ndw-14" target="TJBPnK9k0TUtc4zv2ndw-16" edge="1">
          <mxGeometry width="50" height="50" relative="1" as="geometry">
            <mxPoint x="820" y="547.5" as="sourcePoint" />
            <mxPoint x="870" y="497.5" as="targetPoint" />
            <Array as="points">
              <mxPoint x="858" y="423.5" />
            </Array>
          </mxGeometry>
        </mxCell>
        <mxCell id="TJBPnK9k0TUtc4zv2ndw-25" value="" style="endArrow=classic;html=1;rounded=0;exitX=1;exitY=0.5;exitDx=0;exitDy=0;entryX=0;entryY=0.5;entryDx=0;entryDy=0;fillColor=#e1d5e7;strokeColor=#9673a6;strokeWidth=2;" parent="1" source="TJBPnK9k0TUtc4zv2ndw-15" target="TJBPnK9k0TUtc4zv2ndw-16" edge="1">
          <mxGeometry width="50" height="50" relative="1" as="geometry">
            <mxPoint x="820" y="547.5" as="sourcePoint" />
            <mxPoint x="870" y="497.5" as="targetPoint" />
          </mxGeometry>
        </mxCell>
        <mxCell id="TJBPnK9k0TUtc4zv2ndw-27" value="" style="endArrow=classicThin;startArrow=classicThin;html=1;rounded=1;entryX=0.5;entryY=1;entryDx=0;entryDy=0;exitX=0;exitY=0.5;exitDx=0;exitDy=0;curved=0;startFill=1;endFill=1;" parent="1" source="TJBPnK9k0TUtc4zv2ndw-11" target="TJBPnK9k0TUtc4zv2ndw-12" edge="1">
          <mxGeometry width="50" height="50" relative="1" as="geometry">
            <mxPoint x="820" y="547.5" as="sourcePoint" />
            <mxPoint x="870" y="497.5" as="targetPoint" />
            <Array as="points">
              <mxPoint x="743" y="510.5" />
            </Array>
          </mxGeometry>
        </mxCell>
        <mxCell id="TJBPnK9k0TUtc4zv2ndw-28" value="" style="endArrow=classicThin;startArrow=classicThin;html=1;rounded=1;exitX=1;exitY=0.5;exitDx=0;exitDy=0;entryX=0.5;entryY=1;entryDx=0;entryDy=0;startFill=1;endFill=1;curved=0;" parent="1" source="TJBPnK9k0TUtc4zv2ndw-11" target="TJBPnK9k0TUtc4zv2ndw-13" edge="1">
          <mxGeometry width="50" height="50" relative="1" as="geometry">
            <mxPoint x="820" y="547.5" as="sourcePoint" />
            <mxPoint x="870" y="497.5" as="targetPoint" />
            <Array as="points">
              <mxPoint x="858" y="510.5" />
            </Array>
          </mxGeometry>
        </mxCell>
        <mxCell id="TJBPnK9k0TUtc4zv2ndw-93" value="" style="rounded=1;whiteSpace=wrap;html=1;fontSize=16;direction=west;" parent="1" vertex="1">
          <mxGeometry x="950" y="140" width="200" height="140" as="geometry" />
        </mxCell>
        <mxCell id="TJBPnK9k0TUtc4zv2ndw-94" value="Fuel" style="rounded=1;whiteSpace=wrap;html=1;fillColor=#e1d5e7;strokeColor=#9673a6;direction=east;" parent="1" vertex="1">
          <mxGeometry x="1075" y="157.5" width="65" height="25" as="geometry" />
        </mxCell>
        <mxCell id="TJBPnK9k0TUtc4zv2ndw-95" value="Helium" style="rounded=1;whiteSpace=wrap;html=1;fillColor=#d5e8d4;strokeColor=#82b366;direction=east;" parent="1" vertex="1">
          <mxGeometry x="1075" y="237.5" width="65" height="25" as="geometry" />
        </mxCell>
        <mxCell id="j9TzEGLDOz4N6yMf3qSw-84" style="edgeStyle=none;shape=connector;curved=0;rounded=1;orthogonalLoop=1;jettySize=auto;html=1;exitX=0;exitY=0.25;exitDx=0;exitDy=0;entryX=0.5;entryY=1;entryDx=0;entryDy=0;labelBackgroundColor=default;strokeColor=#000000;strokeWidth=1;align=center;verticalAlign=middle;fontFamily=Helvetica;fontSize=11;fontColor=default;startArrow=classicThin;startFill=1;endArrow=classicThin;endFill=1;fillColor=#d5e8d4;" edge="1" parent="1" source="TJBPnK9k0TUtc4zv2ndw-96" target="TJBPnK9k0TUtc4zv2ndw-97">
          <mxGeometry relative="1" as="geometry">
            <Array as="points">
              <mxPoint x="993" y="204" />
            </Array>
          </mxGeometry>
        </mxCell>
        <mxCell id="j9TzEGLDOz4N6yMf3qSw-86" style="edgeStyle=none;shape=connector;curved=0;rounded=1;orthogonalLoop=1;jettySize=auto;html=1;exitX=0;exitY=0.75;exitDx=0;exitDy=0;entryX=0.5;entryY=0;entryDx=0;entryDy=0;labelBackgroundColor=default;strokeColor=#000000;strokeWidth=1;align=center;verticalAlign=middle;fontFamily=Helvetica;fontSize=11;fontColor=default;startArrow=classicThin;startFill=1;endArrow=classicThin;endFill=1;fillColor=#d5e8d4;" edge="1" parent="1" source="TJBPnK9k0TUtc4zv2ndw-96" target="TJBPnK9k0TUtc4zv2ndw-98">
          <mxGeometry relative="1" as="geometry">
            <Array as="points">
              <mxPoint x="993" y="216" />
            </Array>
          </mxGeometry>
        </mxCell>
        <mxCell id="j9TzEGLDOz4N6yMf3qSw-87" style="edgeStyle=none;shape=connector;curved=0;rounded=1;orthogonalLoop=1;jettySize=auto;html=1;exitX=1;exitY=0.25;exitDx=0;exitDy=0;entryX=0.5;entryY=1;entryDx=0;entryDy=0;labelBackgroundColor=default;strokeColor=#000000;strokeWidth=1;align=center;verticalAlign=middle;fontFamily=Helvetica;fontSize=11;fontColor=default;startArrow=classicThin;startFill=1;endArrow=classicThin;endFill=1;fillColor=#d5e8d4;" edge="1" parent="1" source="TJBPnK9k0TUtc4zv2ndw-96" target="TJBPnK9k0TUtc4zv2ndw-94">
          <mxGeometry relative="1" as="geometry">
            <Array as="points">
              <mxPoint x="1108" y="204" />
            </Array>
          </mxGeometry>
        </mxCell>
        <mxCell id="j9TzEGLDOz4N6yMf3qSw-88" style="edgeStyle=none;shape=connector;curved=0;rounded=1;orthogonalLoop=1;jettySize=auto;html=1;exitX=1;exitY=0.75;exitDx=0;exitDy=0;entryX=0.5;entryY=0;entryDx=0;entryDy=0;labelBackgroundColor=default;strokeColor=#000000;strokeWidth=1;align=center;verticalAlign=middle;fontFamily=Helvetica;fontSize=11;fontColor=default;startArrow=classicThin;startFill=1;endArrow=classicThin;endFill=1;fillColor=#d5e8d4;" edge="1" parent="1" source="TJBPnK9k0TUtc4zv2ndw-96" target="TJBPnK9k0TUtc4zv2ndw-95">
          <mxGeometry relative="1" as="geometry">
            <Array as="points">
              <mxPoint x="1108" y="216" />
            </Array>
          </mxGeometry>
        </mxCell>
        <mxCell id="TJBPnK9k0TUtc4zv2ndw-96" value="Tubes" style="rounded=1;whiteSpace=wrap;html=1;fillColor=#f5f5f5;strokeColor=#666666;fontColor=#333333;direction=east;" parent="1" vertex="1">
          <mxGeometry x="1017.5" y="197.5" width="65" height="25" as="geometry" />
        </mxCell>
        <mxCell id="TJBPnK9k0TUtc4zv2ndw-97" value="Fuel" style="rounded=1;whiteSpace=wrap;html=1;fillColor=#e1d5e7;strokeColor=#9673a6;direction=east;" parent="1" vertex="1">
          <mxGeometry x="960" y="157.5" width="65" height="25" as="geometry" />
        </mxCell>
        <mxCell id="TJBPnK9k0TUtc4zv2ndw-98" value="Helium" style="rounded=1;whiteSpace=wrap;html=1;fillColor=#d5e8d4;strokeColor=#82b366;direction=east;" parent="1" vertex="1">
          <mxGeometry x="960" y="237.5" width="65" height="25" as="geometry" />
        </mxCell>
        <mxCell id="TJBPnK9k0TUtc4zv2ndw-116" value="" style="rounded=1;whiteSpace=wrap;html=1;fontSize=16;direction=west;" parent="1" vertex="1">
          <mxGeometry x="950" y="300" width="200" height="140" as="geometry" />
        </mxCell>
        <mxCell id="TJBPnK9k0TUtc4zv2ndw-117" value="Helium" style="rounded=1;whiteSpace=wrap;html=1;fillColor=#d5e8d4;strokeColor=#82b366;direction=east;" parent="1" vertex="1">
          <mxGeometry x="1075" y="317.5" width="65" height="25" as="geometry" />
        </mxCell>
        <mxCell id="TJBPnK9k0TUtc4zv2ndw-118" value="Water" style="rounded=1;whiteSpace=wrap;html=1;fillColor=#dae8fc;strokeColor=#6c8ebf;direction=east;" parent="1" vertex="1">
          <mxGeometry x="1075" y="397.5" width="65" height="25" as="geometry" />
        </mxCell>
        <mxCell id="j9TzEGLDOz4N6yMf3qSw-90" style="edgeStyle=none;shape=connector;curved=0;rounded=1;orthogonalLoop=1;jettySize=auto;html=1;exitX=0;exitY=0.75;exitDx=0;exitDy=0;entryX=0.5;entryY=0;entryDx=0;entryDy=0;labelBackgroundColor=default;strokeColor=#000000;strokeWidth=1;align=center;verticalAlign=middle;fontFamily=Helvetica;fontSize=11;fontColor=default;startArrow=classicThin;startFill=1;endArrow=classicThin;endFill=1;fillColor=#d5e8d4;" edge="1" parent="1" source="TJBPnK9k0TUtc4zv2ndw-119" target="TJBPnK9k0TUtc4zv2ndw-121">
          <mxGeometry relative="1" as="geometry">
            <Array as="points">
              <mxPoint x="993" y="376" />
            </Array>
          </mxGeometry>
        </mxCell>
        <mxCell id="j9TzEGLDOz4N6yMf3qSw-91" style="edgeStyle=none;shape=connector;curved=0;rounded=1;orthogonalLoop=1;jettySize=auto;html=1;exitX=1;exitY=0.25;exitDx=0;exitDy=0;entryX=0.5;entryY=1;entryDx=0;entryDy=0;labelBackgroundColor=default;strokeColor=#000000;strokeWidth=1;align=center;verticalAlign=middle;fontFamily=Helvetica;fontSize=11;fontColor=default;startArrow=classicThin;startFill=1;endArrow=classicThin;endFill=1;fillColor=#d5e8d4;" edge="1" parent="1" source="TJBPnK9k0TUtc4zv2ndw-119" target="TJBPnK9k0TUtc4zv2ndw-117">
          <mxGeometry relative="1" as="geometry">
            <Array as="points">
              <mxPoint x="1108" y="364" />
            </Array>
          </mxGeometry>
        </mxCell>
        <mxCell id="j9TzEGLDOz4N6yMf3qSw-92" style="edgeStyle=none;shape=connector;curved=0;rounded=1;orthogonalLoop=1;jettySize=auto;html=1;exitX=1;exitY=0.75;exitDx=0;exitDy=0;entryX=0.5;entryY=0;entryDx=0;entryDy=0;labelBackgroundColor=default;strokeColor=#000000;strokeWidth=1;align=center;verticalAlign=middle;fontFamily=Helvetica;fontSize=11;fontColor=default;startArrow=classicThin;startFill=1;endArrow=classicThin;endFill=1;fillColor=#d5e8d4;" edge="1" parent="1" source="TJBPnK9k0TUtc4zv2ndw-119" target="TJBPnK9k0TUtc4zv2ndw-118">
          <mxGeometry relative="1" as="geometry">
            <Array as="points">
              <mxPoint x="1108" y="376" />
            </Array>
          </mxGeometry>
        </mxCell>
        <mxCell id="TJBPnK9k0TUtc4zv2ndw-119" value="Tubes" style="rounded=1;whiteSpace=wrap;html=1;fillColor=#f5f5f5;strokeColor=#666666;fontColor=#333333;direction=east;" parent="1" vertex="1">
          <mxGeometry x="1017.5" y="357.5" width="65" height="25" as="geometry" />
        </mxCell>
        <mxCell id="j9TzEGLDOz4N6yMf3qSw-89" style="edgeStyle=none;shape=connector;curved=0;rounded=1;orthogonalLoop=1;jettySize=auto;html=1;exitX=0.5;exitY=1;exitDx=0;exitDy=0;entryX=0;entryY=0.25;entryDx=0;entryDy=0;labelBackgroundColor=default;strokeColor=#000000;strokeWidth=1;align=center;verticalAlign=middle;fontFamily=Helvetica;fontSize=11;fontColor=default;startArrow=classicThin;startFill=1;endArrow=classicThin;endFill=1;fillColor=#d5e8d4;" edge="1" parent="1" source="TJBPnK9k0TUtc4zv2ndw-120" target="TJBPnK9k0TUtc4zv2ndw-119">
          <mxGeometry relative="1" as="geometry">
            <Array as="points">
              <mxPoint x="993" y="364" />
            </Array>
          </mxGeometry>
        </mxCell>
        <mxCell id="TJBPnK9k0TUtc4zv2ndw-120" value="Helium" style="rounded=1;whiteSpace=wrap;html=1;fillColor=#d5e8d4;strokeColor=#82b366;direction=east;" parent="1" vertex="1">
          <mxGeometry x="960" y="317.5" width="65" height="25" as="geometry" />
        </mxCell>
        <mxCell id="TJBPnK9k0TUtc4zv2ndw-121" value="Water" style="rounded=1;whiteSpace=wrap;html=1;fillColor=#dae8fc;strokeColor=#6c8ebf;direction=east;" parent="1" vertex="1">
          <mxGeometry x="960" y="397.5" width="65" height="25" as="geometry" />
        </mxCell>
        <mxCell id="TJBPnK9k0TUtc4zv2ndw-128" value="" style="rounded=1;whiteSpace=wrap;html=1;fontSize=16;direction=west;" parent="1" vertex="1">
          <mxGeometry x="950" y="462.5" width="200" height="140" as="geometry" />
        </mxCell>
        <mxCell id="TJBPnK9k0TUtc4zv2ndw-129" value="Fuel" style="rounded=1;whiteSpace=wrap;html=1;fillColor=#e1d5e7;strokeColor=#9673a6;direction=east;" parent="1" vertex="1">
          <mxGeometry x="1075" y="480" width="65" height="25" as="geometry" />
        </mxCell>
        <mxCell id="TJBPnK9k0TUtc4zv2ndw-130" value="Helium" style="rounded=1;whiteSpace=wrap;html=1;fillColor=#d5e8d4;strokeColor=#82b366;direction=east;" parent="1" vertex="1">
          <mxGeometry x="1075" y="560" width="65" height="25" as="geometry" />
        </mxCell>
        <mxCell id="j9TzEGLDOz4N6yMf3qSw-77" style="edgeStyle=none;shape=connector;curved=0;rounded=1;orthogonalLoop=1;jettySize=auto;html=1;exitX=0;exitY=0.75;exitDx=0;exitDy=0;entryX=0.5;entryY=0;entryDx=0;entryDy=0;labelBackgroundColor=default;strokeColor=#000000;strokeWidth=1;align=center;verticalAlign=middle;fontFamily=Helvetica;fontSize=11;fontColor=default;startArrow=classicThin;startFill=1;endArrow=classicThin;endFill=1;fillColor=#d5e8d4;" edge="1" parent="1" source="TJBPnK9k0TUtc4zv2ndw-131" target="TJBPnK9k0TUtc4zv2ndw-133">
          <mxGeometry relative="1" as="geometry">
            <Array as="points">
              <mxPoint x="993" y="540" />
            </Array>
          </mxGeometry>
        </mxCell>
        <mxCell id="j9TzEGLDOz4N6yMf3qSw-78" style="edgeStyle=none;shape=connector;curved=0;rounded=1;orthogonalLoop=1;jettySize=auto;html=1;exitX=0;exitY=0.25;exitDx=0;exitDy=0;entryX=0.5;entryY=1;entryDx=0;entryDy=0;labelBackgroundColor=default;strokeColor=#000000;strokeWidth=1;align=center;verticalAlign=middle;fontFamily=Helvetica;fontSize=11;fontColor=default;startArrow=classicThin;startFill=1;endArrow=classicThin;endFill=1;fillColor=#d5e8d4;" edge="1" parent="1" source="TJBPnK9k0TUtc4zv2ndw-131" target="TJBPnK9k0TUtc4zv2ndw-132">
          <mxGeometry relative="1" as="geometry">
            <Array as="points">
              <mxPoint x="993" y="526" />
            </Array>
          </mxGeometry>
        </mxCell>
        <mxCell id="j9TzEGLDOz4N6yMf3qSw-79" style="edgeStyle=none;shape=connector;curved=0;rounded=1;orthogonalLoop=1;jettySize=auto;html=1;exitX=1;exitY=0.75;exitDx=0;exitDy=0;entryX=0.5;entryY=0;entryDx=0;entryDy=0;labelBackgroundColor=default;strokeColor=#000000;strokeWidth=1;align=center;verticalAlign=middle;fontFamily=Helvetica;fontSize=11;fontColor=default;startArrow=classicThin;startFill=1;endArrow=classicThin;endFill=1;fillColor=#d5e8d4;" edge="1" parent="1" source="TJBPnK9k0TUtc4zv2ndw-131" target="TJBPnK9k0TUtc4zv2ndw-130">
          <mxGeometry relative="1" as="geometry">
            <Array as="points">
              <mxPoint x="1108" y="539" />
            </Array>
          </mxGeometry>
        </mxCell>
        <mxCell id="j9TzEGLDOz4N6yMf3qSw-80" style="edgeStyle=none;shape=connector;curved=0;rounded=1;orthogonalLoop=1;jettySize=auto;html=1;exitX=1;exitY=0.25;exitDx=0;exitDy=0;entryX=0.5;entryY=1;entryDx=0;entryDy=0;labelBackgroundColor=default;strokeColor=#000000;strokeWidth=1;align=center;verticalAlign=middle;fontFamily=Helvetica;fontSize=11;fontColor=default;startArrow=classicThin;startFill=1;endArrow=classicThin;endFill=1;fillColor=#d5e8d4;" edge="1" parent="1" source="TJBPnK9k0TUtc4zv2ndw-131" target="TJBPnK9k0TUtc4zv2ndw-129">
          <mxGeometry relative="1" as="geometry">
            <Array as="points">
              <mxPoint x="1108" y="526" />
            </Array>
          </mxGeometry>
        </mxCell>
        <mxCell id="TJBPnK9k0TUtc4zv2ndw-131" value="Tubes" style="rounded=1;whiteSpace=wrap;html=1;fillColor=#f5f5f5;strokeColor=#666666;fontColor=#333333;direction=east;" parent="1" vertex="1">
          <mxGeometry x="1017.5" y="520" width="65" height="25" as="geometry" />
        </mxCell>
        <mxCell id="TJBPnK9k0TUtc4zv2ndw-132" value="Fuel" style="rounded=1;whiteSpace=wrap;html=1;fillColor=#e1d5e7;strokeColor=#9673a6;direction=east;" parent="1" vertex="1">
          <mxGeometry x="960" y="480" width="65" height="25" as="geometry" />
        </mxCell>
        <mxCell id="TJBPnK9k0TUtc4zv2ndw-133" value="Helium" style="rounded=1;whiteSpace=wrap;html=1;fillColor=#d5e8d4;strokeColor=#82b366;direction=east;" parent="1" vertex="1">
          <mxGeometry x="960" y="560" width="65" height="25" as="geometry" />
        </mxCell>
        <mxCell id="TJBPnK9k0TUtc4zv2ndw-140" value="" style="rounded=1;whiteSpace=wrap;html=1;fontSize=16;direction=west;" parent="1" vertex="1">
          <mxGeometry x="950" y="620" width="200" height="140" as="geometry" />
        </mxCell>
        <mxCell id="TJBPnK9k0TUtc4zv2ndw-141" value="Helium" style="rounded=1;whiteSpace=wrap;html=1;fillColor=#d5e8d4;strokeColor=#82b366;direction=east;" parent="1" vertex="1">
          <mxGeometry x="1075" y="637.5" width="65" height="25" as="geometry" />
        </mxCell>
        <mxCell id="TJBPnK9k0TUtc4zv2ndw-142" value="Water" style="rounded=1;whiteSpace=wrap;html=1;fillColor=#dae8fc;strokeColor=#6c8ebf;direction=east;" parent="1" vertex="1">
          <mxGeometry x="1075" y="717.5" width="65" height="25" as="geometry" />
        </mxCell>
        <mxCell id="j9TzEGLDOz4N6yMf3qSw-72" style="edgeStyle=none;shape=connector;curved=0;rounded=1;orthogonalLoop=1;jettySize=auto;html=1;exitX=0;exitY=0.75;exitDx=0;exitDy=0;entryX=0.5;entryY=0;entryDx=0;entryDy=0;labelBackgroundColor=default;strokeColor=#000000;strokeWidth=1;align=center;verticalAlign=middle;fontFamily=Helvetica;fontSize=11;fontColor=default;startArrow=classicThin;startFill=1;endArrow=classicThin;endFill=1;fillColor=#d5e8d4;" edge="1" parent="1" source="TJBPnK9k0TUtc4zv2ndw-143" target="TJBPnK9k0TUtc4zv2ndw-145">
          <mxGeometry relative="1" as="geometry">
            <Array as="points">
              <mxPoint x="993" y="696" />
            </Array>
          </mxGeometry>
        </mxCell>
        <mxCell id="j9TzEGLDOz4N6yMf3qSw-73" style="edgeStyle=none;shape=connector;curved=0;rounded=1;orthogonalLoop=1;jettySize=auto;html=1;exitX=0;exitY=0.25;exitDx=0;exitDy=0;entryX=0.5;entryY=1;entryDx=0;entryDy=0;labelBackgroundColor=default;strokeColor=#000000;strokeWidth=1;align=center;verticalAlign=middle;fontFamily=Helvetica;fontSize=11;fontColor=default;startArrow=classicThin;startFill=1;endArrow=classicThin;endFill=1;fillColor=#d5e8d4;" edge="1" parent="1" source="TJBPnK9k0TUtc4zv2ndw-143" target="TJBPnK9k0TUtc4zv2ndw-144">
          <mxGeometry relative="1" as="geometry">
            <Array as="points">
              <mxPoint x="993" y="684" />
            </Array>
          </mxGeometry>
        </mxCell>
        <mxCell id="j9TzEGLDOz4N6yMf3qSw-75" style="edgeStyle=none;shape=connector;curved=0;rounded=1;orthogonalLoop=1;jettySize=auto;html=1;exitX=1;exitY=0.25;exitDx=0;exitDy=0;entryX=0.5;entryY=1;entryDx=0;entryDy=0;labelBackgroundColor=default;strokeColor=#000000;strokeWidth=1;align=center;verticalAlign=middle;fontFamily=Helvetica;fontSize=11;fontColor=default;startArrow=classicThin;startFill=1;endArrow=classicThin;endFill=1;fillColor=#d5e8d4;" edge="1" parent="1" source="TJBPnK9k0TUtc4zv2ndw-143" target="TJBPnK9k0TUtc4zv2ndw-141">
          <mxGeometry relative="1" as="geometry">
            <Array as="points">
              <mxPoint x="1108" y="684" />
            </Array>
          </mxGeometry>
        </mxCell>
        <mxCell id="j9TzEGLDOz4N6yMf3qSw-76" style="edgeStyle=none;shape=connector;curved=0;rounded=1;orthogonalLoop=1;jettySize=auto;html=1;exitX=1;exitY=0.75;exitDx=0;exitDy=0;entryX=0.5;entryY=0;entryDx=0;entryDy=0;labelBackgroundColor=default;strokeColor=#000000;strokeWidth=1;align=center;verticalAlign=middle;fontFamily=Helvetica;fontSize=11;fontColor=default;startArrow=classicThin;startFill=1;endArrow=classicThin;endFill=1;fillColor=#d5e8d4;" edge="1" parent="1" source="TJBPnK9k0TUtc4zv2ndw-143" target="TJBPnK9k0TUtc4zv2ndw-142">
          <mxGeometry relative="1" as="geometry">
            <Array as="points">
              <mxPoint x="1108" y="696" />
            </Array>
          </mxGeometry>
        </mxCell>
        <mxCell id="TJBPnK9k0TUtc4zv2ndw-143" value="Tubes" style="rounded=1;whiteSpace=wrap;html=1;fillColor=#f5f5f5;strokeColor=#666666;fontColor=#333333;direction=east;" parent="1" vertex="1">
          <mxGeometry x="1017.5" y="677.5" width="65" height="25" as="geometry" />
        </mxCell>
        <mxCell id="TJBPnK9k0TUtc4zv2ndw-144" value="Helium" style="rounded=1;whiteSpace=wrap;html=1;fillColor=#d5e8d4;strokeColor=#82b366;direction=east;" parent="1" vertex="1">
          <mxGeometry x="960" y="637.5" width="65" height="25" as="geometry" />
        </mxCell>
        <mxCell id="TJBPnK9k0TUtc4zv2ndw-145" value="Water" style="rounded=1;whiteSpace=wrap;html=1;fillColor=#dae8fc;strokeColor=#6c8ebf;direction=east;" parent="1" vertex="1">
          <mxGeometry x="960" y="717.5" width="65" height="25" as="geometry" />
        </mxCell>
        <mxCell id="TJBPnK9k0TUtc4zv2ndw-160" value="" style="rounded=1;whiteSpace=wrap;html=1;fontSize=16;direction=west;" parent="1" vertex="1">
          <mxGeometry x="450" y="140" width="200" height="140" as="geometry" />
        </mxCell>
        <mxCell id="j9TzEGLDOz4N6yMf3qSw-43" style="edgeStyle=none;shape=connector;curved=0;rounded=1;orthogonalLoop=1;jettySize=auto;html=1;exitX=1;exitY=0.5;exitDx=0;exitDy=0;labelBackgroundColor=default;strokeColor=#6c8ebf;strokeWidth=2;align=center;verticalAlign=middle;fontFamily=Helvetica;fontSize=11;fontColor=default;endArrow=classic;fillColor=#dae8fc;" edge="1" parent="1" source="TJBPnK9k0TUtc4zv2ndw-161">
          <mxGeometry relative="1" as="geometry">
            <mxPoint x="660" y="80" as="targetPoint" />
            <Array as="points">
              <mxPoint x="660" y="170" />
            </Array>
          </mxGeometry>
        </mxCell>
        <mxCell id="TJBPnK9k0TUtc4zv2ndw-161" value="Water" style="rounded=1;whiteSpace=wrap;html=1;fillColor=#dae8fc;strokeColor=#6c8ebf;direction=east;" parent="1" vertex="1">
          <mxGeometry x="575" y="157.5" width="65" height="25" as="geometry" />
        </mxCell>
        <mxCell id="TJBPnK9k0TUtc4zv2ndw-162" value="Helium" style="rounded=1;whiteSpace=wrap;html=1;fillColor=#d5e8d4;strokeColor=#82b366;direction=east;" parent="1" vertex="1">
          <mxGeometry x="575" y="237.5" width="65" height="25" as="geometry" />
        </mxCell>
        <mxCell id="j9TzEGLDOz4N6yMf3qSw-57" style="edgeStyle=none;shape=connector;curved=0;rounded=1;orthogonalLoop=1;jettySize=auto;html=1;exitX=0;exitY=0.75;exitDx=0;exitDy=0;entryX=0.5;entryY=0;entryDx=0;entryDy=0;labelBackgroundColor=default;strokeColor=#000000;strokeWidth=1;align=center;verticalAlign=middle;fontFamily=Helvetica;fontSize=11;fontColor=default;startArrow=classicThin;startFill=1;endArrow=classicThin;endFill=1;fillColor=#d5e8d4;" edge="1" parent="1" source="TJBPnK9k0TUtc4zv2ndw-163" target="TJBPnK9k0TUtc4zv2ndw-165">
          <mxGeometry relative="1" as="geometry">
            <Array as="points">
              <mxPoint x="493" y="216" />
            </Array>
          </mxGeometry>
        </mxCell>
        <mxCell id="j9TzEGLDOz4N6yMf3qSw-58" style="edgeStyle=none;shape=connector;curved=0;rounded=1;orthogonalLoop=1;jettySize=auto;html=1;exitX=1;exitY=0.25;exitDx=0;exitDy=0;entryX=0.5;entryY=1;entryDx=0;entryDy=0;labelBackgroundColor=default;strokeColor=#000000;strokeWidth=1;align=center;verticalAlign=middle;fontFamily=Helvetica;fontSize=11;fontColor=default;startArrow=classicThin;startFill=1;endArrow=classicThin;endFill=1;fillColor=#d5e8d4;" edge="1" parent="1" source="TJBPnK9k0TUtc4zv2ndw-163" target="TJBPnK9k0TUtc4zv2ndw-161">
          <mxGeometry relative="1" as="geometry">
            <Array as="points">
              <mxPoint x="608" y="204" />
            </Array>
          </mxGeometry>
        </mxCell>
        <mxCell id="j9TzEGLDOz4N6yMf3qSw-59" style="edgeStyle=none;shape=connector;curved=0;rounded=1;orthogonalLoop=1;jettySize=auto;html=1;exitX=1;exitY=0.75;exitDx=0;exitDy=0;entryX=0.5;entryY=0;entryDx=0;entryDy=0;labelBackgroundColor=default;strokeColor=#000000;strokeWidth=1;align=center;verticalAlign=middle;fontFamily=Helvetica;fontSize=11;fontColor=default;startArrow=classicThin;startFill=1;endArrow=classicThin;endFill=1;fillColor=#d5e8d4;" edge="1" parent="1" source="TJBPnK9k0TUtc4zv2ndw-163" target="TJBPnK9k0TUtc4zv2ndw-162">
          <mxGeometry relative="1" as="geometry">
            <Array as="points">
              <mxPoint x="610" y="216" />
            </Array>
          </mxGeometry>
        </mxCell>
        <mxCell id="TJBPnK9k0TUtc4zv2ndw-163" value="Tubes" style="rounded=1;whiteSpace=wrap;html=1;fillColor=#f5f5f5;strokeColor=#666666;fontColor=#333333;direction=east;" parent="1" vertex="1">
          <mxGeometry x="517.5" y="197.5" width="65" height="25" as="geometry" />
        </mxCell>
        <mxCell id="j9TzEGLDOz4N6yMf3qSw-42" style="edgeStyle=none;shape=connector;curved=0;rounded=1;orthogonalLoop=1;jettySize=auto;html=1;exitX=1;exitY=0.5;exitDx=0;exitDy=0;labelBackgroundColor=default;strokeColor=#6c8ebf;strokeWidth=2;align=center;verticalAlign=middle;fontFamily=Helvetica;fontSize=11;fontColor=default;endArrow=classic;fillColor=#dae8fc;" edge="1" parent="1" source="TJBPnK9k0TUtc4zv2ndw-164" target="TJBPnK9k0TUtc4zv2ndw-161">
          <mxGeometry relative="1" as="geometry" />
        </mxCell>
        <mxCell id="TJBPnK9k0TUtc4zv2ndw-164" value="Water" style="rounded=1;whiteSpace=wrap;html=1;fillColor=#dae8fc;strokeColor=#6c8ebf;direction=east;" parent="1" vertex="1">
          <mxGeometry x="460" y="157.5" width="65" height="25" as="geometry" />
        </mxCell>
        <mxCell id="TJBPnK9k0TUtc4zv2ndw-165" value="Helium" style="rounded=1;whiteSpace=wrap;html=1;fillColor=#d5e8d4;strokeColor=#82b366;direction=east;" parent="1" vertex="1">
          <mxGeometry x="460" y="237.5" width="65" height="25" as="geometry" />
        </mxCell>
        <mxCell id="TJBPnK9k0TUtc4zv2ndw-172" value="" style="rounded=1;whiteSpace=wrap;html=1;fontSize=16;direction=west;" parent="1" vertex="1">
          <mxGeometry x="450" y="300" width="200" height="140" as="geometry" />
        </mxCell>
        <mxCell id="j9TzEGLDOz4N6yMf3qSw-36" style="edgeStyle=none;shape=connector;curved=0;rounded=1;orthogonalLoop=1;jettySize=auto;html=1;exitX=0;exitY=0.5;exitDx=0;exitDy=0;labelBackgroundColor=default;strokeColor=#82b366;strokeWidth=2;align=center;verticalAlign=middle;fontFamily=Helvetica;fontSize=11;fontColor=default;endArrow=classic;fillColor=#d5e8d4;entryX=0;entryY=0.5;entryDx=0;entryDy=0;" edge="1" parent="1" source="TJBPnK9k0TUtc4zv2ndw-165" target="TJBPnK9k0TUtc4zv2ndw-176">
          <mxGeometry relative="1" as="geometry">
            <mxPoint x="390" y="340" as="targetPoint" />
            <Array as="points">
              <mxPoint x="430" y="250" />
              <mxPoint x="430" y="330" />
            </Array>
          </mxGeometry>
        </mxCell>
        <mxCell id="TJBPnK9k0TUtc4zv2ndw-173" value="Helium" style="rounded=1;whiteSpace=wrap;html=1;fillColor=#d5e8d4;strokeColor=#82b366;direction=east;" parent="1" vertex="1">
          <mxGeometry x="575" y="317.5" width="65" height="25" as="geometry" />
        </mxCell>
        <mxCell id="TJBPnK9k0TUtc4zv2ndw-174" value="Coolant" style="rounded=1;whiteSpace=wrap;html=1;fillColor=#ffe6cc;strokeColor=#d79b00;direction=east;" parent="1" vertex="1">
          <mxGeometry x="575" y="397.5" width="65" height="25" as="geometry" />
        </mxCell>
        <mxCell id="j9TzEGLDOz4N6yMf3qSw-70" style="edgeStyle=none;shape=connector;curved=0;rounded=1;orthogonalLoop=1;jettySize=auto;html=1;exitX=1;exitY=0.75;exitDx=0;exitDy=0;entryX=0.5;entryY=0;entryDx=0;entryDy=0;labelBackgroundColor=default;strokeColor=#000000;strokeWidth=1;align=center;verticalAlign=middle;fontFamily=Helvetica;fontSize=11;fontColor=default;startArrow=classicThin;startFill=1;endArrow=classicThin;endFill=1;fillColor=#d5e8d4;" edge="1" parent="1" source="TJBPnK9k0TUtc4zv2ndw-175" target="TJBPnK9k0TUtc4zv2ndw-174">
          <mxGeometry relative="1" as="geometry">
            <Array as="points">
              <mxPoint x="608" y="376" />
            </Array>
          </mxGeometry>
        </mxCell>
        <mxCell id="j9TzEGLDOz4N6yMf3qSw-71" style="edgeStyle=none;shape=connector;curved=0;rounded=1;orthogonalLoop=1;jettySize=auto;html=1;exitX=1;exitY=0.25;exitDx=0;exitDy=0;entryX=0.5;entryY=1;entryDx=0;entryDy=0;labelBackgroundColor=default;strokeColor=#000000;strokeWidth=1;align=center;verticalAlign=middle;fontFamily=Helvetica;fontSize=11;fontColor=default;startArrow=classicThin;startFill=1;endArrow=classicThin;endFill=1;fillColor=#d5e8d4;" edge="1" parent="1" source="TJBPnK9k0TUtc4zv2ndw-175" target="TJBPnK9k0TUtc4zv2ndw-173">
          <mxGeometry relative="1" as="geometry">
            <Array as="points">
              <mxPoint x="608" y="364" />
            </Array>
          </mxGeometry>
        </mxCell>
        <mxCell id="TJBPnK9k0TUtc4zv2ndw-175" value="Tubes" style="rounded=1;whiteSpace=wrap;html=1;fillColor=#f5f5f5;strokeColor=#666666;fontColor=#333333;direction=east;" parent="1" vertex="1">
          <mxGeometry x="517.5" y="357.5" width="65" height="25" as="geometry" />
        </mxCell>
        <mxCell id="j9TzEGLDOz4N6yMf3qSw-60" style="edgeStyle=none;shape=connector;curved=0;rounded=1;orthogonalLoop=1;jettySize=auto;html=1;exitX=0.5;exitY=1;exitDx=0;exitDy=0;entryX=0;entryY=0.25;entryDx=0;entryDy=0;labelBackgroundColor=default;strokeColor=#000000;strokeWidth=1;align=center;verticalAlign=middle;fontFamily=Helvetica;fontSize=11;fontColor=default;startArrow=classicThin;startFill=1;endArrow=classicThin;endFill=1;fillColor=#d5e8d4;" edge="1" parent="1" source="TJBPnK9k0TUtc4zv2ndw-176" target="TJBPnK9k0TUtc4zv2ndw-175">
          <mxGeometry relative="1" as="geometry">
            <Array as="points">
              <mxPoint x="493" y="364" />
            </Array>
          </mxGeometry>
        </mxCell>
        <mxCell id="TJBPnK9k0TUtc4zv2ndw-176" value="Helium" style="rounded=1;whiteSpace=wrap;html=1;fillColor=#d5e8d4;strokeColor=#82b366;direction=east;" parent="1" vertex="1">
          <mxGeometry x="460" y="317.5" width="65" height="25" as="geometry" />
        </mxCell>
        <mxCell id="j9TzEGLDOz4N6yMf3qSw-53" style="edgeStyle=none;shape=connector;curved=0;rounded=1;orthogonalLoop=1;jettySize=auto;html=1;exitX=0;exitY=0.5;exitDx=0;exitDy=0;labelBackgroundColor=default;strokeColor=#d79b00;strokeWidth=2;align=center;verticalAlign=middle;fontFamily=Helvetica;fontSize=11;fontColor=default;endArrow=classic;fillColor=#ffe6cc;" edge="1" parent="1" source="TJBPnK9k0TUtc4zv2ndw-177">
          <mxGeometry relative="1" as="geometry">
            <mxPoint x="360" y="520" as="targetPoint" />
            <Array as="points">
              <mxPoint x="360" y="410" />
            </Array>
          </mxGeometry>
        </mxCell>
        <mxCell id="j9TzEGLDOz4N6yMf3qSw-61" style="edgeStyle=none;shape=connector;curved=0;rounded=1;orthogonalLoop=1;jettySize=auto;html=1;exitX=0.5;exitY=0;exitDx=0;exitDy=0;entryX=0;entryY=0.75;entryDx=0;entryDy=0;labelBackgroundColor=default;strokeColor=#000000;strokeWidth=1;align=center;verticalAlign=middle;fontFamily=Helvetica;fontSize=11;fontColor=default;startArrow=classicThin;startFill=1;endArrow=classicThin;endFill=1;fillColor=#d5e8d4;" edge="1" parent="1" source="TJBPnK9k0TUtc4zv2ndw-177" target="TJBPnK9k0TUtc4zv2ndw-175">
          <mxGeometry relative="1" as="geometry">
            <Array as="points">
              <mxPoint x="493" y="376" />
            </Array>
          </mxGeometry>
        </mxCell>
        <mxCell id="TJBPnK9k0TUtc4zv2ndw-177" value="Coolant" style="rounded=1;whiteSpace=wrap;html=1;fillColor=#ffe6cc;strokeColor=#d79b00;direction=east;" parent="1" vertex="1">
          <mxGeometry x="460" y="397.5" width="65" height="25" as="geometry" />
        </mxCell>
        <mxCell id="TJBPnK9k0TUtc4zv2ndw-208" value="" style="rounded=1;whiteSpace=wrap;html=1;fontSize=16;direction=west;" parent="1" vertex="1">
          <mxGeometry x="450" y="462.5" width="200" height="140" as="geometry" />
        </mxCell>
        <mxCell id="TJBPnK9k0TUtc4zv2ndw-209" value="Coolant" style="rounded=1;whiteSpace=wrap;html=1;fillColor=#ffe6cc;strokeColor=#d79b00;direction=east;" parent="1" vertex="1">
          <mxGeometry x="575" y="480" width="65" height="25" as="geometry" />
        </mxCell>
        <mxCell id="TJBPnK9k0TUtc4zv2ndw-210" value="Helium" style="rounded=1;whiteSpace=wrap;html=1;fillColor=#d5e8d4;strokeColor=#82b366;direction=east;" parent="1" vertex="1">
          <mxGeometry x="575" y="560" width="65" height="25" as="geometry" />
        </mxCell>
        <mxCell id="j9TzEGLDOz4N6yMf3qSw-68" style="edgeStyle=none;shape=connector;curved=0;rounded=1;orthogonalLoop=1;jettySize=auto;html=1;exitX=1;exitY=0.75;exitDx=0;exitDy=0;entryX=0.5;entryY=0;entryDx=0;entryDy=0;labelBackgroundColor=default;strokeColor=#000000;strokeWidth=1;align=center;verticalAlign=middle;fontFamily=Helvetica;fontSize=11;fontColor=default;startArrow=classicThin;startFill=1;endArrow=classicThin;endFill=1;fillColor=#d5e8d4;" edge="1" parent="1" source="TJBPnK9k0TUtc4zv2ndw-211" target="TJBPnK9k0TUtc4zv2ndw-210">
          <mxGeometry relative="1" as="geometry">
            <Array as="points">
              <mxPoint x="608" y="539" />
            </Array>
          </mxGeometry>
        </mxCell>
        <mxCell id="j9TzEGLDOz4N6yMf3qSw-69" style="edgeStyle=none;shape=connector;curved=0;rounded=1;orthogonalLoop=1;jettySize=auto;html=1;exitX=1;exitY=0.25;exitDx=0;exitDy=0;entryX=0.5;entryY=1;entryDx=0;entryDy=0;labelBackgroundColor=default;strokeColor=#000000;strokeWidth=1;align=center;verticalAlign=middle;fontFamily=Helvetica;fontSize=11;fontColor=default;startArrow=classicThin;startFill=1;endArrow=classicThin;endFill=1;fillColor=#d5e8d4;" edge="1" parent="1" source="TJBPnK9k0TUtc4zv2ndw-211" target="TJBPnK9k0TUtc4zv2ndw-209">
          <mxGeometry relative="1" as="geometry">
            <Array as="points">
              <mxPoint x="608" y="526" />
            </Array>
          </mxGeometry>
        </mxCell>
        <mxCell id="TJBPnK9k0TUtc4zv2ndw-211" value="Tubes" style="rounded=1;whiteSpace=wrap;html=1;fillColor=#f5f5f5;strokeColor=#666666;fontColor=#333333;direction=east;" parent="1" vertex="1">
          <mxGeometry x="517.5" y="520" width="65" height="25" as="geometry" />
        </mxCell>
        <mxCell id="j9TzEGLDOz4N6yMf3qSw-62" style="edgeStyle=none;shape=connector;curved=0;rounded=1;orthogonalLoop=1;jettySize=auto;html=1;exitX=0.5;exitY=1;exitDx=0;exitDy=0;entryX=0;entryY=0.25;entryDx=0;entryDy=0;labelBackgroundColor=default;strokeColor=#000000;strokeWidth=1;align=center;verticalAlign=middle;fontFamily=Helvetica;fontSize=11;fontColor=default;startArrow=classicThin;startFill=1;endArrow=classicThin;endFill=1;fillColor=#d5e8d4;" edge="1" parent="1" source="TJBPnK9k0TUtc4zv2ndw-212" target="TJBPnK9k0TUtc4zv2ndw-211">
          <mxGeometry relative="1" as="geometry">
            <Array as="points">
              <mxPoint x="493" y="526" />
            </Array>
          </mxGeometry>
        </mxCell>
        <mxCell id="TJBPnK9k0TUtc4zv2ndw-212" value="Coolant" style="rounded=1;whiteSpace=wrap;html=1;fillColor=#ffe6cc;strokeColor=#d79b00;direction=east;" parent="1" vertex="1">
          <mxGeometry x="460" y="480" width="65" height="25" as="geometry" />
        </mxCell>
        <mxCell id="j9TzEGLDOz4N6yMf3qSw-37" style="edgeStyle=none;shape=connector;curved=0;rounded=1;orthogonalLoop=1;jettySize=auto;html=1;exitX=1;exitY=0.5;exitDx=0;exitDy=0;entryX=0;entryY=0.5;entryDx=0;entryDy=0;labelBackgroundColor=default;strokeColor=#82b366;strokeWidth=2;align=center;verticalAlign=middle;fontFamily=Helvetica;fontSize=11;fontColor=default;endArrow=classic;fillColor=#d5e8d4;" edge="1" parent="1" source="TJBPnK9k0TUtc4zv2ndw-213" target="TJBPnK9k0TUtc4zv2ndw-210">
          <mxGeometry relative="1" as="geometry" />
        </mxCell>
        <mxCell id="j9TzEGLDOz4N6yMf3qSw-63" style="edgeStyle=none;shape=connector;curved=0;rounded=1;orthogonalLoop=1;jettySize=auto;html=1;exitX=0.5;exitY=0;exitDx=0;exitDy=0;entryX=0;entryY=0.75;entryDx=0;entryDy=0;labelBackgroundColor=default;strokeColor=#000000;strokeWidth=1;align=center;verticalAlign=middle;fontFamily=Helvetica;fontSize=11;fontColor=default;startArrow=classicThin;startFill=1;endArrow=classicThin;endFill=1;fillColor=#d5e8d4;" edge="1" parent="1" source="TJBPnK9k0TUtc4zv2ndw-213" target="TJBPnK9k0TUtc4zv2ndw-211">
          <mxGeometry relative="1" as="geometry">
            <Array as="points">
              <mxPoint x="493" y="539" />
            </Array>
          </mxGeometry>
        </mxCell>
        <mxCell id="TJBPnK9k0TUtc4zv2ndw-213" value="Helium" style="rounded=1;whiteSpace=wrap;html=1;fillColor=#d5e8d4;strokeColor=#82b366;direction=east;" parent="1" vertex="1">
          <mxGeometry x="460" y="560" width="65" height="25" as="geometry" />
        </mxCell>
        <mxCell id="TJBPnK9k0TUtc4zv2ndw-218" value="" style="rounded=1;whiteSpace=wrap;html=1;fontSize=16;direction=west;" parent="1" vertex="1">
          <mxGeometry x="450" y="620" width="200" height="140" as="geometry" />
        </mxCell>
        <mxCell id="j9TzEGLDOz4N6yMf3qSw-39" style="edgeStyle=none;shape=connector;curved=0;rounded=1;orthogonalLoop=1;jettySize=auto;html=1;exitX=1;exitY=0.5;exitDx=0;exitDy=0;entryX=1;entryY=0.5;entryDx=0;entryDy=0;labelBackgroundColor=default;strokeColor=#82b366;strokeWidth=2;align=center;verticalAlign=middle;fontFamily=Helvetica;fontSize=11;fontColor=default;endArrow=classic;fillColor=#d5e8d4;" edge="1" parent="1" source="TJBPnK9k0TUtc4zv2ndw-210" target="TJBPnK9k0TUtc4zv2ndw-219">
          <mxGeometry relative="1" as="geometry">
            <Array as="points">
              <mxPoint x="670" y="573" />
              <mxPoint x="670" y="650" />
            </Array>
          </mxGeometry>
        </mxCell>
        <mxCell id="j9TzEGLDOz4N6yMf3qSw-40" style="edgeStyle=none;shape=connector;curved=0;rounded=1;orthogonalLoop=1;jettySize=auto;html=1;exitX=0;exitY=0.5;exitDx=0;exitDy=0;entryX=1;entryY=0.5;entryDx=0;entryDy=0;labelBackgroundColor=default;strokeColor=#82b366;strokeWidth=2;align=center;verticalAlign=middle;fontFamily=Helvetica;fontSize=11;fontColor=default;endArrow=classic;fillColor=#d5e8d4;" edge="1" parent="1" source="TJBPnK9k0TUtc4zv2ndw-219" target="TJBPnK9k0TUtc4zv2ndw-222">
          <mxGeometry relative="1" as="geometry" />
        </mxCell>
        <mxCell id="TJBPnK9k0TUtc4zv2ndw-219" value="Helium" style="rounded=1;whiteSpace=wrap;html=1;fillColor=#d5e8d4;strokeColor=#82b366;direction=east;" parent="1" vertex="1">
          <mxGeometry x="575" y="637.5" width="65" height="25" as="geometry" />
        </mxCell>
        <mxCell id="j9TzEGLDOz4N6yMf3qSw-48" style="edgeStyle=none;shape=connector;curved=0;rounded=1;orthogonalLoop=1;jettySize=auto;html=1;exitX=1;exitY=0.5;exitDx=0;exitDy=0;labelBackgroundColor=default;strokeColor=#6c8ebf;strokeWidth=2;align=center;verticalAlign=middle;fontFamily=Helvetica;fontSize=11;fontColor=default;endArrow=classic;fillColor=#dae8fc;" edge="1" parent="1" source="TJBPnK9k0TUtc4zv2ndw-220">
          <mxGeometry relative="1" as="geometry">
            <mxPoint x="680" y="780" as="targetPoint" />
            <Array as="points">
              <mxPoint x="680" y="730" />
            </Array>
          </mxGeometry>
        </mxCell>
        <mxCell id="TJBPnK9k0TUtc4zv2ndw-220" value="Water" style="rounded=1;whiteSpace=wrap;html=1;fillColor=#dae8fc;strokeColor=#6c8ebf;direction=east;" parent="1" vertex="1">
          <mxGeometry x="575" y="717.5" width="65" height="25" as="geometry" />
        </mxCell>
        <mxCell id="j9TzEGLDOz4N6yMf3qSw-66" style="edgeStyle=none;shape=connector;curved=0;rounded=1;orthogonalLoop=1;jettySize=auto;html=1;exitX=1;exitY=0.75;exitDx=0;exitDy=0;entryX=0.5;entryY=0;entryDx=0;entryDy=0;labelBackgroundColor=default;strokeColor=#000000;strokeWidth=1;align=center;verticalAlign=middle;fontFamily=Helvetica;fontSize=11;fontColor=default;startArrow=classicThin;startFill=1;endArrow=classicThin;endFill=1;fillColor=#d5e8d4;" edge="1" parent="1" source="TJBPnK9k0TUtc4zv2ndw-221" target="TJBPnK9k0TUtc4zv2ndw-220">
          <mxGeometry relative="1" as="geometry">
            <Array as="points">
              <mxPoint x="608" y="696" />
            </Array>
          </mxGeometry>
        </mxCell>
        <mxCell id="j9TzEGLDOz4N6yMf3qSw-67" style="edgeStyle=none;shape=connector;curved=0;rounded=1;orthogonalLoop=1;jettySize=auto;html=1;exitX=1;exitY=0.25;exitDx=0;exitDy=0;entryX=0.5;entryY=1;entryDx=0;entryDy=0;labelBackgroundColor=default;strokeColor=#000000;strokeWidth=1;align=center;verticalAlign=middle;fontFamily=Helvetica;fontSize=11;fontColor=default;startArrow=classicThin;startFill=1;endArrow=classicThin;endFill=1;fillColor=#d5e8d4;" edge="1" parent="1" source="TJBPnK9k0TUtc4zv2ndw-221" target="TJBPnK9k0TUtc4zv2ndw-219">
          <mxGeometry relative="1" as="geometry">
            <Array as="points">
              <mxPoint x="608" y="684" />
            </Array>
          </mxGeometry>
        </mxCell>
        <mxCell id="TJBPnK9k0TUtc4zv2ndw-221" value="Tubes" style="rounded=1;whiteSpace=wrap;html=1;fillColor=#f5f5f5;strokeColor=#666666;fontColor=#333333;direction=east;" parent="1" vertex="1">
          <mxGeometry x="517.5" y="677.5" width="65" height="25" as="geometry" />
        </mxCell>
        <mxCell id="j9TzEGLDOz4N6yMf3qSw-41" style="edgeStyle=none;shape=connector;curved=0;rounded=1;orthogonalLoop=1;jettySize=auto;html=1;exitX=0;exitY=0.5;exitDx=0;exitDy=0;labelBackgroundColor=default;strokeColor=#82b366;strokeWidth=2;align=center;verticalAlign=middle;fontFamily=Helvetica;fontSize=11;fontColor=default;endArrow=classic;fillColor=#d5e8d4;entryX=0;entryY=0.5;entryDx=0;entryDy=0;" edge="1" parent="1" source="TJBPnK9k0TUtc4zv2ndw-222" target="TJBPnK9k0TUtc4zv2ndw-213">
          <mxGeometry relative="1" as="geometry">
            <mxPoint x="400" y="580" as="targetPoint" />
            <Array as="points">
              <mxPoint x="430" y="650" />
              <mxPoint x="430" y="573" />
            </Array>
          </mxGeometry>
        </mxCell>
        <mxCell id="j9TzEGLDOz4N6yMf3qSw-64" style="edgeStyle=none;shape=connector;curved=0;rounded=1;orthogonalLoop=1;jettySize=auto;html=1;exitX=0.5;exitY=1;exitDx=0;exitDy=0;entryX=0;entryY=0.25;entryDx=0;entryDy=0;labelBackgroundColor=default;strokeColor=#000000;strokeWidth=1;align=center;verticalAlign=middle;fontFamily=Helvetica;fontSize=11;fontColor=default;startArrow=classicThin;startFill=1;endArrow=classicThin;endFill=1;fillColor=#d5e8d4;" edge="1" parent="1" source="TJBPnK9k0TUtc4zv2ndw-222" target="TJBPnK9k0TUtc4zv2ndw-221">
          <mxGeometry relative="1" as="geometry">
            <Array as="points">
              <mxPoint x="493" y="684" />
            </Array>
          </mxGeometry>
        </mxCell>
        <mxCell id="TJBPnK9k0TUtc4zv2ndw-222" value="Helium" style="rounded=1;whiteSpace=wrap;html=1;fillColor=#d5e8d4;strokeColor=#82b366;direction=east;" parent="1" vertex="1">
          <mxGeometry x="460" y="637.5" width="65" height="25" as="geometry" />
        </mxCell>
        <mxCell id="j9TzEGLDOz4N6yMf3qSw-47" style="edgeStyle=none;shape=connector;curved=0;rounded=1;orthogonalLoop=1;jettySize=auto;html=1;exitX=1;exitY=0.5;exitDx=0;exitDy=0;entryX=0;entryY=0.5;entryDx=0;entryDy=0;labelBackgroundColor=default;strokeColor=#6c8ebf;strokeWidth=2;align=center;verticalAlign=middle;fontFamily=Helvetica;fontSize=11;fontColor=default;endArrow=classic;fillColor=#dae8fc;" edge="1" parent="1" source="TJBPnK9k0TUtc4zv2ndw-223" target="TJBPnK9k0TUtc4zv2ndw-220">
          <mxGeometry relative="1" as="geometry" />
        </mxCell>
        <mxCell id="j9TzEGLDOz4N6yMf3qSw-65" style="edgeStyle=none;shape=connector;curved=0;rounded=1;orthogonalLoop=1;jettySize=auto;html=1;exitX=0.5;exitY=0;exitDx=0;exitDy=0;entryX=0;entryY=0.75;entryDx=0;entryDy=0;labelBackgroundColor=default;strokeColor=#000000;strokeWidth=1;align=center;verticalAlign=middle;fontFamily=Helvetica;fontSize=11;fontColor=default;startArrow=classicThin;startFill=1;endArrow=classicThin;endFill=1;fillColor=#d5e8d4;" edge="1" parent="1" source="TJBPnK9k0TUtc4zv2ndw-223" target="TJBPnK9k0TUtc4zv2ndw-221">
          <mxGeometry relative="1" as="geometry">
            <Array as="points">
              <mxPoint x="493" y="696" />
            </Array>
          </mxGeometry>
        </mxCell>
        <mxCell id="TJBPnK9k0TUtc4zv2ndw-223" value="Water" style="rounded=1;whiteSpace=wrap;html=1;fillColor=#dae8fc;strokeColor=#6c8ebf;direction=east;" parent="1" vertex="1">
          <mxGeometry x="460" y="717.5" width="65" height="25" as="geometry" />
        </mxCell>
        <mxCell id="j9TzEGLDOz4N6yMf3qSw-3" value="" style="endArrow=classic;html=1;rounded=1;exitX=1;exitY=0.5;exitDx=0;exitDy=0;entryX=0;entryY=0.5;entryDx=0;entryDy=0;curved=0;fillColor=#e1d5e7;strokeColor=#9673a6;strokeWidth=2;" edge="1" parent="1" source="TJBPnK9k0TUtc4zv2ndw-16" target="TJBPnK9k0TUtc4zv2ndw-97">
          <mxGeometry width="50" height="50" relative="1" as="geometry">
            <mxPoint x="920" y="500" as="sourcePoint" />
            <mxPoint x="970" y="450" as="targetPoint" />
            <Array as="points">
              <mxPoint x="920" y="390" />
              <mxPoint x="920" y="170" />
            </Array>
          </mxGeometry>
        </mxCell>
        <mxCell id="j9TzEGLDOz4N6yMf3qSw-4" value="" style="endArrow=classic;html=1;rounded=1;exitX=1;exitY=0.5;exitDx=0;exitDy=0;entryX=0;entryY=0.5;entryDx=0;entryDy=0;curved=0;fillColor=#e1d5e7;strokeColor=#9673a6;strokeWidth=2;" edge="1" parent="1" source="TJBPnK9k0TUtc4zv2ndw-16" target="TJBPnK9k0TUtc4zv2ndw-132">
          <mxGeometry width="50" height="50" relative="1" as="geometry">
            <mxPoint x="920" y="410" as="sourcePoint" />
            <mxPoint x="970" y="360" as="targetPoint" />
            <Array as="points">
              <mxPoint x="920" y="390" />
              <mxPoint x="920" y="493" />
            </Array>
          </mxGeometry>
        </mxCell>
        <mxCell id="j9TzEGLDOz4N6yMf3qSw-5" value="" style="endArrow=classic;html=1;rounded=1;exitX=0;exitY=0.5;exitDx=0;exitDy=0;entryX=0;entryY=0.5;entryDx=0;entryDy=0;fillColor=#d5e8d4;strokeColor=#82b366;strokeWidth=2;curved=0;" edge="1" parent="1" source="TJBPnK9k0TUtc4zv2ndw-98" target="TJBPnK9k0TUtc4zv2ndw-120">
          <mxGeometry width="50" height="50" relative="1" as="geometry">
            <mxPoint x="930" y="470" as="sourcePoint" />
            <mxPoint x="980" y="420" as="targetPoint" />
            <Array as="points">
              <mxPoint x="940" y="250" />
              <mxPoint x="940" y="330" />
            </Array>
          </mxGeometry>
        </mxCell>
        <mxCell id="j9TzEGLDOz4N6yMf3qSw-6" value="" style="endArrow=classic;html=1;rounded=0;exitX=1;exitY=0.5;exitDx=0;exitDy=0;entryX=0;entryY=0.5;entryDx=0;entryDy=0;fillColor=#d5e8d4;strokeColor=#82b366;strokeWidth=2;" edge="1" parent="1" source="TJBPnK9k0TUtc4zv2ndw-120" target="TJBPnK9k0TUtc4zv2ndw-117">
          <mxGeometry width="50" height="50" relative="1" as="geometry">
            <mxPoint x="930" y="470" as="sourcePoint" />
            <mxPoint x="980" y="420" as="targetPoint" />
          </mxGeometry>
        </mxCell>
        <mxCell id="j9TzEGLDOz4N6yMf3qSw-7" value="" style="endArrow=classic;html=1;rounded=1;exitX=1;exitY=0.5;exitDx=0;exitDy=0;entryX=1;entryY=0.5;entryDx=0;entryDy=0;fillColor=#d5e8d4;strokeColor=#82b366;strokeWidth=2;curved=0;jumpStyle=arc;" edge="1" parent="1" source="TJBPnK9k0TUtc4zv2ndw-117" target="TJBPnK9k0TUtc4zv2ndw-130">
          <mxGeometry width="50" height="50" relative="1" as="geometry">
            <mxPoint x="930" y="470" as="sourcePoint" />
            <mxPoint x="980" y="420" as="targetPoint" />
            <Array as="points">
              <mxPoint x="1180" y="330" />
              <mxPoint x="1180" y="573" />
            </Array>
          </mxGeometry>
        </mxCell>
        <mxCell id="j9TzEGLDOz4N6yMf3qSw-8" value="" style="endArrow=classic;html=1;rounded=1;exitX=0;exitY=0.5;exitDx=0;exitDy=0;entryX=0;entryY=0.5;entryDx=0;entryDy=0;fillColor=#d5e8d4;strokeColor=#82b366;curved=0;strokeWidth=2;" edge="1" parent="1" source="TJBPnK9k0TUtc4zv2ndw-133" target="TJBPnK9k0TUtc4zv2ndw-144">
          <mxGeometry width="50" height="50" relative="1" as="geometry">
            <mxPoint x="930" y="470" as="sourcePoint" />
            <mxPoint x="980" y="420" as="targetPoint" />
            <Array as="points">
              <mxPoint x="920" y="573" />
              <mxPoint x="920" y="650" />
            </Array>
          </mxGeometry>
        </mxCell>
        <mxCell id="j9TzEGLDOz4N6yMf3qSw-9" value="" style="endArrow=classic;html=1;rounded=1;exitX=1;exitY=0.5;exitDx=0;exitDy=0;entryX=1;entryY=0.5;entryDx=0;entryDy=0;strokeWidth=2;curved=0;fillColor=#d5e8d4;strokeColor=#82b366;jumpStyle=arc;" edge="1" parent="1" source="TJBPnK9k0TUtc4zv2ndw-141" target="TJBPnK9k0TUtc4zv2ndw-95">
          <mxGeometry width="50" height="50" relative="1" as="geometry">
            <mxPoint x="930" y="470" as="sourcePoint" />
            <mxPoint x="980" y="420" as="targetPoint" />
            <Array as="points">
              <mxPoint x="1210" y="650" />
              <mxPoint x="1210" y="250" />
            </Array>
          </mxGeometry>
        </mxCell>
        <mxCell id="j9TzEGLDOz4N6yMf3qSw-10" value="" style="endArrow=classic;html=1;rounded=1;labelBackgroundColor=default;strokeColor=#82b366;strokeWidth=2;align=center;verticalAlign=middle;fontFamily=Helvetica;fontSize=11;fontColor=default;fillColor=#d5e8d4;shape=connector;curved=0;exitX=1;exitY=0.5;exitDx=0;exitDy=0;entryX=0;entryY=0.5;entryDx=0;entryDy=0;" edge="1" parent="1" source="TJBPnK9k0TUtc4zv2ndw-144" target="TJBPnK9k0TUtc4zv2ndw-141">
          <mxGeometry width="50" height="50" relative="1" as="geometry">
            <mxPoint x="930" y="470" as="sourcePoint" />
            <mxPoint x="980" y="420" as="targetPoint" />
          </mxGeometry>
        </mxCell>
        <mxCell id="j9TzEGLDOz4N6yMf3qSw-11" value="" style="endArrow=classic;html=1;rounded=1;labelBackgroundColor=default;strokeColor=#82b366;strokeWidth=2;align=center;verticalAlign=middle;fontFamily=Helvetica;fontSize=11;fontColor=default;fillColor=#d5e8d4;shape=connector;curved=0;exitX=0;exitY=0.5;exitDx=0;exitDy=0;entryX=1;entryY=0.5;entryDx=0;entryDy=0;" edge="1" parent="1" source="TJBPnK9k0TUtc4zv2ndw-95" target="TJBPnK9k0TUtc4zv2ndw-98">
          <mxGeometry width="50" height="50" relative="1" as="geometry">
            <mxPoint x="930" y="470" as="sourcePoint" />
            <mxPoint x="980" y="420" as="targetPoint" />
          </mxGeometry>
        </mxCell>
        <mxCell id="j9TzEGLDOz4N6yMf3qSw-12" value="" style="endArrow=classic;html=1;rounded=1;labelBackgroundColor=default;strokeColor=#9673a6;strokeWidth=2;align=center;verticalAlign=middle;fontFamily=Helvetica;fontSize=11;fontColor=default;fillColor=#e1d5e7;shape=connector;curved=0;exitX=1;exitY=0.5;exitDx=0;exitDy=0;entryX=0;entryY=0.5;entryDx=0;entryDy=0;" edge="1" parent="1" source="TJBPnK9k0TUtc4zv2ndw-97" target="TJBPnK9k0TUtc4zv2ndw-94">
          <mxGeometry width="50" height="50" relative="1" as="geometry">
            <mxPoint x="930" y="470" as="sourcePoint" />
            <mxPoint x="980" y="420" as="targetPoint" />
          </mxGeometry>
        </mxCell>
        <mxCell id="j9TzEGLDOz4N6yMf3qSw-13" value="" style="endArrow=classic;html=1;rounded=1;labelBackgroundColor=default;strokeColor=#9673a6;strokeWidth=2;align=center;verticalAlign=middle;fontFamily=Helvetica;fontSize=11;fontColor=default;fillColor=#e1d5e7;shape=connector;curved=0;exitX=1;exitY=0.5;exitDx=0;exitDy=0;entryX=0;entryY=0.5;entryDx=0;entryDy=0;" edge="1" parent="1" source="TJBPnK9k0TUtc4zv2ndw-132" target="TJBPnK9k0TUtc4zv2ndw-129">
          <mxGeometry width="50" height="50" relative="1" as="geometry">
            <mxPoint x="930" y="470" as="sourcePoint" />
            <mxPoint x="980" y="420" as="targetPoint" />
          </mxGeometry>
        </mxCell>
        <mxCell id="j9TzEGLDOz4N6yMf3qSw-14" value="" style="endArrow=classic;html=1;rounded=1;labelBackgroundColor=default;strokeColor=#6c8ebf;strokeWidth=2;align=center;verticalAlign=middle;fontFamily=Helvetica;fontSize=11;fontColor=default;fillColor=#dae8fc;shape=connector;curved=0;exitX=0;exitY=0.5;exitDx=0;exitDy=0;entryX=1;entryY=0.5;entryDx=0;entryDy=0;" edge="1" parent="1" source="TJBPnK9k0TUtc4zv2ndw-142" target="TJBPnK9k0TUtc4zv2ndw-145">
          <mxGeometry width="50" height="50" relative="1" as="geometry">
            <mxPoint x="930" y="470" as="sourcePoint" />
            <mxPoint x="980" y="420" as="targetPoint" />
          </mxGeometry>
        </mxCell>
        <mxCell id="j9TzEGLDOz4N6yMf3qSw-15" value="" style="endArrow=classic;html=1;rounded=1;labelBackgroundColor=default;strokeColor=#6c8ebf;strokeWidth=2;align=center;verticalAlign=middle;fontFamily=Helvetica;fontSize=11;fontColor=default;fillColor=#dae8fc;shape=connector;curved=0;entryX=1;entryY=0.5;entryDx=0;entryDy=0;exitX=0;exitY=0.5;exitDx=0;exitDy=0;" edge="1" parent="1" source="TJBPnK9k0TUtc4zv2ndw-118" target="TJBPnK9k0TUtc4zv2ndw-121">
          <mxGeometry width="50" height="50" relative="1" as="geometry">
            <mxPoint x="930" y="470" as="sourcePoint" />
            <mxPoint x="980" y="420" as="targetPoint" />
          </mxGeometry>
        </mxCell>
        <mxCell id="j9TzEGLDOz4N6yMf3qSw-20" value="" style="endArrow=classic;html=1;rounded=1;labelBackgroundColor=default;strokeColor=#9673a6;strokeWidth=2;align=center;verticalAlign=middle;fontFamily=Helvetica;fontSize=11;fontColor=default;fillColor=#e1d5e7;shape=connector;curved=0;exitX=1;exitY=0.5;exitDx=0;exitDy=0;entryX=0;entryY=0.5;entryDx=0;entryDy=0;" edge="1" parent="1" source="TJBPnK9k0TUtc4zv2ndw-94" target="TJBPnK9k0TUtc4zv2ndw-15">
          <mxGeometry width="50" height="50" relative="1" as="geometry">
            <mxPoint x="930" y="470" as="sourcePoint" />
            <mxPoint x="980" y="420" as="targetPoint" />
            <Array as="points">
              <mxPoint x="1240" y="170" />
              <mxPoint x="1240" y="80" />
              <mxPoint x="680" y="80" />
              <mxPoint x="680" y="390" />
            </Array>
          </mxGeometry>
        </mxCell>
        <mxCell id="j9TzEGLDOz4N6yMf3qSw-22" value="" style="endArrow=classic;html=1;rounded=1;labelBackgroundColor=default;strokeColor=#9673a6;strokeWidth=2;align=center;verticalAlign=middle;fontFamily=Helvetica;fontSize=11;fontColor=default;fillColor=#e1d5e7;shape=connector;curved=0;exitX=1;exitY=0.5;exitDx=0;exitDy=0;jumpStyle=arc;" edge="1" parent="1" source="TJBPnK9k0TUtc4zv2ndw-129">
          <mxGeometry width="50" height="50" relative="1" as="geometry">
            <mxPoint x="930" y="470" as="sourcePoint" />
            <mxPoint x="1240" y="320" as="targetPoint" />
            <Array as="points">
              <mxPoint x="1240" y="493" />
            </Array>
          </mxGeometry>
        </mxCell>
        <mxCell id="j9TzEGLDOz4N6yMf3qSw-23" value="" style="endArrow=classic;html=1;rounded=1;labelBackgroundColor=default;strokeColor=#6c8ebf;strokeWidth=2;align=center;verticalAlign=middle;fontFamily=Helvetica;fontSize=11;fontColor=default;fillColor=#dae8fc;shape=connector;curved=0;entryX=1;entryY=0.5;entryDx=0;entryDy=0;jumpStyle=arc;" edge="1" parent="1" target="TJBPnK9k0TUtc4zv2ndw-118">
          <mxGeometry width="50" height="50" relative="1" as="geometry">
            <mxPoint x="1320" y="540" as="sourcePoint" />
            <mxPoint x="980" y="420" as="targetPoint" />
            <Array as="points">
              <mxPoint x="1270" y="540" />
              <mxPoint x="1270" y="470" />
              <mxPoint x="1270" y="410" />
            </Array>
          </mxGeometry>
        </mxCell>
        <mxCell id="j9TzEGLDOz4N6yMf3qSw-24" value="" style="endArrow=classic;html=1;rounded=1;labelBackgroundColor=default;strokeColor=#6c8ebf;strokeWidth=2;align=center;verticalAlign=middle;fontFamily=Helvetica;fontSize=11;fontColor=default;fillColor=#dae8fc;shape=connector;curved=0;entryX=1;entryY=0.5;entryDx=0;entryDy=0;" edge="1" parent="1" target="TJBPnK9k0TUtc4zv2ndw-142">
          <mxGeometry width="50" height="50" relative="1" as="geometry">
            <mxPoint x="1320" y="540" as="sourcePoint" />
            <mxPoint x="980" y="420" as="targetPoint" />
            <Array as="points">
              <mxPoint x="1270" y="540" />
              <mxPoint x="1270" y="640" />
              <mxPoint x="1270" y="700" />
              <mxPoint x="1270" y="730" />
            </Array>
          </mxGeometry>
        </mxCell>
        <mxCell id="j9TzEGLDOz4N6yMf3qSw-25" value="Ambient" style="text;html=1;strokeColor=none;fillColor=none;align=center;verticalAlign=middle;whiteSpace=wrap;rounded=0;fontSize=12;fontFamily=Helvetica;fontColor=default;" vertex="1" parent="1">
          <mxGeometry x="1320" y="522.5" width="60" height="30" as="geometry" />
        </mxCell>
        <mxCell id="j9TzEGLDOz4N6yMf3qSw-26" value="" style="endArrow=classic;html=1;rounded=1;labelBackgroundColor=default;strokeColor=#6c8ebf;strokeWidth=2;align=center;verticalAlign=middle;fontFamily=Helvetica;fontSize=11;fontColor=default;fillColor=#dae8fc;shape=connector;curved=0;exitX=0;exitY=0.5;exitDx=0;exitDy=0;jumpStyle=arc;" edge="1" parent="1" source="TJBPnK9k0TUtc4zv2ndw-121">
          <mxGeometry width="50" height="50" relative="1" as="geometry">
            <mxPoint x="930" y="470" as="sourcePoint" />
            <mxPoint x="940" y="790" as="targetPoint" />
            <Array as="points">
              <mxPoint x="940" y="410" />
            </Array>
          </mxGeometry>
        </mxCell>
        <mxCell id="j9TzEGLDOz4N6yMf3qSw-27" value="" style="endArrow=classic;html=1;rounded=1;labelBackgroundColor=default;strokeColor=#6c8ebf;strokeWidth=2;align=center;verticalAlign=middle;fontFamily=Helvetica;fontSize=11;fontColor=default;fillColor=#dae8fc;shape=connector;curved=0;exitX=0;exitY=0.5;exitDx=0;exitDy=0;" edge="1" parent="1" source="TJBPnK9k0TUtc4zv2ndw-145">
          <mxGeometry width="50" height="50" relative="1" as="geometry">
            <mxPoint x="930" y="470" as="sourcePoint" />
            <mxPoint x="940" y="790" as="targetPoint" />
            <Array as="points">
              <mxPoint x="940" y="730" />
            </Array>
          </mxGeometry>
        </mxCell>
        <mxCell id="j9TzEGLDOz4N6yMf3qSw-28" value="Dumped" style="text;html=1;strokeColor=none;fillColor=none;align=center;verticalAlign=middle;whiteSpace=wrap;rounded=0;fontSize=12;fontFamily=Helvetica;fontColor=default;" vertex="1" parent="1">
          <mxGeometry x="920" y="790" width="60" height="30" as="geometry" />
        </mxCell>
        <mxCell id="j9TzEGLDOz4N6yMf3qSw-29" value="" style="endArrow=classic;html=1;rounded=1;labelBackgroundColor=default;strokeColor=#d79b00;strokeWidth=2;align=center;verticalAlign=middle;fontFamily=Helvetica;fontSize=11;fontColor=default;fillColor=#ffe6cc;shape=connector;curved=0;exitX=0;exitY=0.5;exitDx=0;exitDy=0;entryX=1;entryY=0.5;entryDx=0;entryDy=0;" edge="1" parent="1" source="TJBPnK9k0TUtc4zv2ndw-12" target="TJBPnK9k0TUtc4zv2ndw-174">
          <mxGeometry width="50" height="50" relative="1" as="geometry">
            <mxPoint x="930" y="470" as="sourcePoint" />
            <mxPoint x="980" y="420" as="targetPoint" />
            <Array as="points">
              <mxPoint x="690" y="470" />
              <mxPoint x="690" y="410" />
            </Array>
          </mxGeometry>
        </mxCell>
        <mxCell id="j9TzEGLDOz4N6yMf3qSw-30" value="" style="endArrow=classic;html=1;rounded=1;labelBackgroundColor=default;strokeColor=#d79b00;strokeWidth=2;align=center;verticalAlign=middle;fontFamily=Helvetica;fontSize=11;fontColor=default;fillColor=#ffe6cc;shape=connector;curved=0;entryX=1;entryY=0.5;entryDx=0;entryDy=0;exitX=0;exitY=0.5;exitDx=0;exitDy=0;" edge="1" parent="1" source="TJBPnK9k0TUtc4zv2ndw-12" target="TJBPnK9k0TUtc4zv2ndw-209">
          <mxGeometry width="50" height="50" relative="1" as="geometry">
            <mxPoint x="930" y="470" as="sourcePoint" />
            <mxPoint x="980" y="420" as="targetPoint" />
            <Array as="points">
              <mxPoint x="690" y="470" />
              <mxPoint x="690" y="493" />
            </Array>
          </mxGeometry>
        </mxCell>
        <mxCell id="j9TzEGLDOz4N6yMf3qSw-31" value="" style="endArrow=classic;html=1;rounded=1;labelBackgroundColor=default;strokeColor=#d79b00;strokeWidth=2;align=center;verticalAlign=middle;fontFamily=Helvetica;fontSize=11;fontColor=default;fillColor=#ffe6cc;shape=connector;curved=0;exitX=0;exitY=0.5;exitDx=0;exitDy=0;entryX=1;entryY=0.5;entryDx=0;entryDy=0;" edge="1" parent="1" source="TJBPnK9k0TUtc4zv2ndw-209" target="TJBPnK9k0TUtc4zv2ndw-212">
          <mxGeometry width="50" height="50" relative="1" as="geometry">
            <mxPoint x="930" y="470" as="sourcePoint" />
            <mxPoint x="980" y="420" as="targetPoint" />
          </mxGeometry>
        </mxCell>
        <mxCell id="j9TzEGLDOz4N6yMf3qSw-32" value="" style="endArrow=classic;html=1;rounded=1;labelBackgroundColor=default;strokeColor=#d79b00;strokeWidth=2;align=center;verticalAlign=middle;fontFamily=Helvetica;fontSize=11;fontColor=default;fillColor=#ffe6cc;shape=connector;curved=0;exitX=0;exitY=0.5;exitDx=0;exitDy=0;entryX=1;entryY=0.5;entryDx=0;entryDy=0;" edge="1" parent="1" source="TJBPnK9k0TUtc4zv2ndw-174" target="TJBPnK9k0TUtc4zv2ndw-177">
          <mxGeometry width="50" height="50" relative="1" as="geometry">
            <mxPoint x="930" y="470" as="sourcePoint" />
            <mxPoint x="980" y="420" as="targetPoint" />
          </mxGeometry>
        </mxCell>
        <mxCell id="j9TzEGLDOz4N6yMf3qSw-33" value="" style="endArrow=classic;html=1;rounded=1;labelBackgroundColor=default;strokeColor=#82b366;strokeWidth=2;align=center;verticalAlign=middle;fontFamily=Helvetica;fontSize=11;fontColor=default;fillColor=#d5e8d4;shape=connector;curved=0;entryX=0;entryY=0.5;entryDx=0;entryDy=0;exitX=1;exitY=0.5;exitDx=0;exitDy=0;" edge="1" parent="1" source="TJBPnK9k0TUtc4zv2ndw-176" target="TJBPnK9k0TUtc4zv2ndw-173">
          <mxGeometry width="50" height="50" relative="1" as="geometry">
            <mxPoint x="930" y="470" as="sourcePoint" />
            <mxPoint x="980" y="420" as="targetPoint" />
          </mxGeometry>
        </mxCell>
        <mxCell id="j9TzEGLDOz4N6yMf3qSw-34" value="" style="endArrow=classic;html=1;rounded=1;labelBackgroundColor=default;strokeColor=#82b366;strokeWidth=2;align=center;verticalAlign=middle;fontFamily=Helvetica;fontSize=11;fontColor=default;fillColor=#d5e8d4;shape=connector;curved=0;exitX=1;exitY=0.5;exitDx=0;exitDy=0;entryX=1;entryY=0.5;entryDx=0;entryDy=0;" edge="1" parent="1" source="TJBPnK9k0TUtc4zv2ndw-173" target="TJBPnK9k0TUtc4zv2ndw-162">
          <mxGeometry width="50" height="50" relative="1" as="geometry">
            <mxPoint x="930" y="470" as="sourcePoint" />
            <mxPoint x="980" y="420" as="targetPoint" />
            <Array as="points">
              <mxPoint x="670" y="330" />
              <mxPoint x="670" y="250" />
            </Array>
          </mxGeometry>
        </mxCell>
        <mxCell id="j9TzEGLDOz4N6yMf3qSw-35" value="" style="endArrow=classic;html=1;rounded=1;labelBackgroundColor=default;strokeColor=#82b366;strokeWidth=2;align=center;verticalAlign=middle;fontFamily=Helvetica;fontSize=11;fontColor=default;fillColor=#d5e8d4;shape=connector;curved=0;exitX=0;exitY=0.5;exitDx=0;exitDy=0;entryX=1;entryY=0.5;entryDx=0;entryDy=0;" edge="1" parent="1" source="TJBPnK9k0TUtc4zv2ndw-162" target="TJBPnK9k0TUtc4zv2ndw-165">
          <mxGeometry width="50" height="50" relative="1" as="geometry">
            <mxPoint x="930" y="470" as="sourcePoint" />
            <mxPoint x="980" y="420" as="targetPoint" />
          </mxGeometry>
        </mxCell>
        <mxCell id="j9TzEGLDOz4N6yMf3qSw-44" value="Dumped" style="text;html=1;strokeColor=none;fillColor=none;align=center;verticalAlign=middle;whiteSpace=wrap;rounded=0;fontSize=11;fontFamily=Helvetica;fontColor=default;" vertex="1" parent="1">
          <mxGeometry x="630" y="50" width="60" height="30" as="geometry" />
        </mxCell>
        <mxCell id="j9TzEGLDOz4N6yMf3qSw-45" value="" style="endArrow=classic;html=1;rounded=1;labelBackgroundColor=default;strokeColor=#6c8ebf;strokeWidth=2;align=center;verticalAlign=middle;fontFamily=Helvetica;fontSize=11;fontColor=default;fillColor=#dae8fc;shape=connector;curved=0;entryX=0;entryY=0.5;entryDx=0;entryDy=0;" edge="1" parent="1" target="TJBPnK9k0TUtc4zv2ndw-164">
          <mxGeometry width="50" height="50" relative="1" as="geometry">
            <mxPoint x="430" y="80" as="sourcePoint" />
            <mxPoint x="980" y="420" as="targetPoint" />
            <Array as="points">
              <mxPoint x="430" y="170" />
            </Array>
          </mxGeometry>
        </mxCell>
        <mxCell id="j9TzEGLDOz4N6yMf3qSw-46" value="Ambient" style="text;html=1;strokeColor=none;fillColor=none;align=center;verticalAlign=middle;whiteSpace=wrap;rounded=0;fontSize=11;fontFamily=Helvetica;fontColor=default;" vertex="1" parent="1">
          <mxGeometry x="400" y="50" width="60" height="30" as="geometry" />
        </mxCell>
        <mxCell id="j9TzEGLDOz4N6yMf3qSw-49" value="" style="endArrow=classic;html=1;rounded=1;labelBackgroundColor=default;strokeColor=#6c8ebf;strokeWidth=2;align=center;verticalAlign=middle;fontFamily=Helvetica;fontSize=11;fontColor=default;fillColor=#dae8fc;shape=connector;curved=0;entryX=0;entryY=0.5;entryDx=0;entryDy=0;" edge="1" parent="1" target="TJBPnK9k0TUtc4zv2ndw-223">
          <mxGeometry width="50" height="50" relative="1" as="geometry">
            <mxPoint x="420" y="780" as="sourcePoint" />
            <mxPoint x="980" y="420" as="targetPoint" />
            <Array as="points">
              <mxPoint x="420" y="730" />
            </Array>
          </mxGeometry>
        </mxCell>
        <mxCell id="j9TzEGLDOz4N6yMf3qSw-50" value="Ambient" style="text;html=1;strokeColor=none;fillColor=none;align=center;verticalAlign=middle;whiteSpace=wrap;rounded=0;fontSize=11;fontFamily=Helvetica;fontColor=default;" vertex="1" parent="1">
          <mxGeometry x="390" y="780" width="60" height="30" as="geometry" />
        </mxCell>
        <mxCell id="j9TzEGLDOz4N6yMf3qSw-51" value="Dumped" style="text;html=1;strokeColor=none;fillColor=none;align=center;verticalAlign=middle;whiteSpace=wrap;rounded=0;fontSize=11;fontFamily=Helvetica;fontColor=default;" vertex="1" parent="1">
          <mxGeometry x="650" y="780" width="60" height="30" as="geometry" />
        </mxCell>
        <mxCell id="j9TzEGLDOz4N6yMf3qSw-52" value="" style="endArrow=classic;html=1;rounded=1;labelBackgroundColor=default;strokeColor=#d79b00;strokeWidth=2;align=center;verticalAlign=middle;fontFamily=Helvetica;fontSize=11;fontColor=default;fillColor=#ffe6cc;shape=connector;curved=0;exitX=0;exitY=0.5;exitDx=0;exitDy=0;entryX=1;entryY=0.5;entryDx=0;entryDy=0;" edge="1" parent="1" source="TJBPnK9k0TUtc4zv2ndw-212" target="TJBPnK9k0TUtc4zv2ndw-13">
          <mxGeometry width="50" height="50" relative="1" as="geometry">
            <mxPoint x="930" y="620" as="sourcePoint" />
            <mxPoint x="910" y="590" as="targetPoint" />
            <Array as="points">
              <mxPoint x="360" y="493" />
              <mxPoint x="360" y="830" />
              <mxPoint x="910" y="830" />
              <mxPoint x="910" y="470" />
            </Array>
          </mxGeometry>
        </mxCell>
        <mxCell id="j9TzEGLDOz4N6yMf3qSw-55" value="" style="endArrow=classicThin;startArrow=classicThin;html=1;rounded=1;labelBackgroundColor=default;strokeColor=#000000;strokeWidth=1;align=center;verticalAlign=middle;fontFamily=Helvetica;fontSize=11;fontColor=default;fillColor=#d5e8d4;shape=connector;edgeStyle=none;curved=0;startFill=1;endFill=1;exitX=0.5;exitY=1;exitDx=0;exitDy=0;entryX=0;entryY=0.25;entryDx=0;entryDy=0;" edge="1" parent="1" source="TJBPnK9k0TUtc4zv2ndw-164" target="TJBPnK9k0TUtc4zv2ndw-163">
          <mxGeometry width="50" height="50" relative="1" as="geometry">
            <mxPoint x="930" y="500" as="sourcePoint" />
            <mxPoint x="980" y="450" as="targetPoint" />
            <Array as="points">
              <mxPoint x="493" y="204" />
            </Array>
          </mxGeometry>
        </mxCell>
        <mxCell id="j9TzEGLDOz4N6yMf3qSw-83" value="" style="endArrow=classic;html=1;rounded=1;labelBackgroundColor=default;strokeColor=#9673a6;strokeWidth=2;align=center;verticalAlign=middle;fontFamily=Helvetica;fontSize=11;fontColor=default;fillColor=#e1d5e7;shape=connector;edgeStyle=none;curved=0;endFill=1;" edge="1" parent="1">
          <mxGeometry width="50" height="50" relative="1" as="geometry">
            <mxPoint x="1240" y="370" as="sourcePoint" />
            <mxPoint x="1240" y="120" as="targetPoint" />
          </mxGeometry>
        </mxCell>
      </root>
    </mxGraphModel>
  </diagram>
</mxfile>
